<?xml version="1.0" encoding="utf-8"?>
<!-- Generator: Adobe Illustrator 21.0.2, SVG Export Plug-In . SVG Version: 6.00 Build 0)  -->
<svg version="1.1" id="Layer_1" xmlns="http://www.w3.org/2000/svg" xmlns:xlink="http://www.w3.org/1999/xlink" x="0px" y="0px"
	 viewBox="0 0 90 93.1" style="enable-background:new 0 0 90 93.1;" xml:space="preserve">
<style type="text/css">
	.st0{fill:#91C84B;}
	.st1{fill:#3AACE2;}
	.st2{fill:#337BBE;}
	.st3{fill:#FBB03B;}
	.st4{fill:#ED1C24;}
</style>
<g>
	<g>
		<path class="st0" d="M74.9,79H15.1C6.8,79,0,72.2,0,63.9V15.1C0,6.8,6.8,0,15.1,0h59.8C83.2,0,90,6.8,90,15.1v48.8
			C90,72.2,83.2,79,74.9,79z"/>
	</g>
	<g>
		<path class="st1" d="M74.9,83.4H15.1C6.8,83.4,0,76.7,0,68.3V19.6C0,11.2,6.8,4.4,15.1,4.4h59.8c8.3,0,15.1,6.8,15.1,15.1v48.8
			C90,76.7,83.2,83.4,74.9,83.4z"/>
	</g>
	<g>
		<path class="st2" d="M74.9,88.3H15.1C6.8,88.3,0,81.6,0,73.2V24.5C0,16.1,6.8,9.4,15.1,9.4h59.8c8.3,0,15.1,6.8,15.1,15.1v48.8
			C90,81.6,83.2,88.3,74.9,88.3z"/>
	</g>
	<g>
		<path class="st3" d="M74.9,93.1H15.1C6.8,93.1,0,86.4,0,78V29.3c0-8.3,6.8-15.1,15.1-15.1h59.8c8.3,0,15.1,6.8,15.1,15.1V78
			C90,86.4,83.2,93.1,74.9,93.1z"/>
	</g>
	<g>
		<g>
			<rect x="1.8" y="44.4" class="st4" width="1.2" height="18.5"/>
			<rect x="86.9" y="44.4" class="st4" width="1.2" height="18.5"/>
			<path class="st4" d="M73.4,16H16.6C8.5,16,1.8,22.6,1.8,30.8v11.8h1.2V30.8c0-7.5,6.1-13.5,13.5-13.5h56.8
				c7.5,0,13.5,6.1,13.5,13.5v11.8h1.2V30.8C88.2,22.6,81.5,16,73.4,16z"/>
			<path class="st4" d="M86.9,76.5c0,7.5-6.1,13.5-13.5,13.5H16.6C9.1,90.1,3.1,84,3.1,76.5V64.8H1.8v11.8c0,8.1,6.6,14.8,14.8,14.8
				h56.8c8.1,0,14.8-6.6,14.8-14.8V64.8h-1.2V76.5z"/>
		</g>
		<g>
			<path class="st4" d="M21.3,42.5h-18v0.6h18c1.2,0,2.2,1,2.2,2.2v8.1H3.3v0.6h20.1V62c0,1.2-1,2.2-2.2,2.2h-18v0.6h18
				c1.5,0,2.8-1.2,2.8-2.8v-8.1v-0.6v-8.1C24.1,43.7,22.8,42.5,21.3,42.5z"/>
			<path class="st4" d="M68.7,43.1h18v-0.6h-18c-1.5,0-2.8,1.2-2.8,2.8v8.1v0.6V62c0,1.5,1.2,2.8,2.8,2.8h18v-0.6h-18
				c-1.2,0-2.2-1-2.2-2.2v-8.1h20.1v-0.6H66.6v-8.1C66.6,44.1,67.5,43.1,68.7,43.1z"/>
			<path class="st4" d="M55.5,33.2c0,1-1,1.8-2.2,1.8h-8.1V17.6h-0.6V35h-8.1c-1.2,0-2.2-0.8-2.2-1.8V17.6h-0.6v15.5
				c0,1.3,1.2,2.4,2.8,2.4h8.1h0.6h8.1c1.5,0,2.8-1.1,2.8-2.4V17.6h-0.6V33.2z"/>
			<path class="st4" d="M53.4,71.7h-8.1h-0.6h-8.1c-1.5,0-2.8,1.1-2.8,2.4v15.5h0.6V74.1c0-1,1-1.8,2.2-1.8h8.1v17.3h0.6V72.3h8.1
				c1.2,0,2.2,0.8,2.2,1.8v15.5h0.6V74.1C56.2,72.8,54.9,71.7,53.4,71.7z"/>
		</g>
		<rect x="72" y="75.3" class="st4" width="8.9" height="5.5"/>
	</g>
</g>
</svg>
