<?xml version="1.0" encoding="utf-8"?>
<!-- Generator: Adobe Illustrator 21.0.2, SVG Export Plug-In . SVG Version: 6.00 Build 0)  -->
<svg version="1.1" id="Layer_1" xmlns="http://www.w3.org/2000/svg" xmlns:xlink="http://www.w3.org/1999/xlink" x="0px" y="0px"
	 viewBox="0 0 64 64" style="enable-background:new 0 0 64 64;" xml:space="preserve">
<style type="text/css">
	.st0{fill:#CCCCCC;}
</style>
<path class="st0" d="M28.5,37L8,16.6c-1.4-1.4-3.6-1.4-5,0s-1.4,3.6,0,5l24.9,24.9c0.9,0.9,2.2,2.3,3.3,2c0.3,0.1,0.5,0.1,0.8,0.1
	c0.3,0,0.6,0,0.8-0.1c1.1,0.3,2.4-1.1,3.3-2L61,21.5c0.7-0.7,1-1.6,1-2.5c0-0.9-0.3-1.8-1-2.5c-1.4-1.4-3.6-1.4-5,0L35.5,37L32,40
	L28.5,37z"/>
</svg>
