<?xml version="1.0" encoding="utf-8"?>
<!-- Generator: Adobe Illustrator 21.0.2, SVG Export Plug-In . SVG Version: 6.00 Build 0)  -->
<svg version="1.1" id="Layer_1" xmlns="http://www.w3.org/2000/svg" xmlns:xlink="http://www.w3.org/1999/xlink" x="0px" y="0px"
	 viewBox="0 0 579 128" enable-background="new 0 0 579 128" xml:space="preserve">
<g>
	<path fill="#555555" d="M6.368,86.105h17.218l4.421,19.933c0.931,1.293,2.753,2.404,5.468,3.335s6.114,1.396,10.199,1.396
		c5.688,0,9.901-1.178,12.643-3.536c2.74-2.356,4.11-5.668,4.11-9.933c0-3.059-0.983-5.767-2.947-8.125
		c-1.965-2.358-4.731-4.565-8.299-6.622s-8.506-4.539-14.814-7.449c-19.39-8.828-29.085-21.42-29.085-37.772
		c0-5.769,1.499-11.099,4.499-15.99c2.998-4.891,7.756-8.854,14.271-11.888C30.567,6.418,38.839,4.9,48.871,4.9
		c5.998,0,11.181,0.163,15.551,0.485c4.369,0.324,8.983,0.755,13.844,1.293c2.947,0.366,4.964,0.549,6.05,0.549L83.308,36.39H66.477
		l-3.8-16.696c-0.57-0.754-1.953-1.43-4.149-2.029c-2.199-0.599-4.797-0.898-7.795-0.898c-5.223,0-9.036,1.242-11.44,3.725
		c-2.404,2.484-3.607,5.507-3.607,9.069c0,3.311,1.15,6.271,3.452,8.879c2.3,2.609,5.158,4.917,8.57,6.924s8.144,4.466,14.193,7.375
		c0.258,0.101,1.008,0.452,2.25,1.053c5.015,2.409,9.54,5.005,13.573,7.79c4.033,2.784,7.484,6.358,10.354,10.724
		c2.87,4.365,4.304,9.456,4.304,15.275s-1.318,11.39-3.956,16.707c-2.637,5.317-7.42,9.783-14.349,13.395
		c-6.929,3.612-16.392,5.418-28.387,5.418c-6.102,0-11.75-0.478-16.947-1.435c-5.196-0.956-10.587-2.209-16.171-3.761
		c-3.567-0.981-6.076-1.551-7.523-1.706L6.368,86.105z"/>
	<path fill="#555555" d="M168.274,39.546c6.593,3.242,11.737,8.092,15.435,14.551c3.696,6.46,5.545,14.391,5.545,23.793
		c0,10.444-2.043,19.03-6.127,25.761c-4.085,6.73-9.605,11.656-16.559,14.774c-6.955,3.118-14.827,4.676-23.617,4.676
		c-8.636,0-16.249-1.62-22.841-4.861c-6.592-3.242-11.75-8.105-15.473-14.589c-3.723-6.483-5.584-14.401-5.584-23.756
		c0-10.047,2.055-18.448,6.166-25.204c4.11-6.754,9.656-11.779,16.636-15.07s14.814-4.937,23.501-4.937
		C154.042,34.683,161.681,36.304,168.274,39.546z M154.972,60.775c-0.775-4.796-2.055-8.314-3.839-10.555
		c-1.784-2.239-4.176-3.36-7.174-3.36c-3.982,0-6.968,2.46-8.958,7.377c-1.991,4.919-2.986,12.784-2.986,23.596
		c0,7.889,0.438,14.258,1.318,19.103c0.878,4.845,2.249,8.389,4.111,10.628c1.861,2.241,4.291,3.36,7.291,3.36
		c3.929,0,6.812-2.435,8.648-7.305c1.834-4.869,2.753-12.759,2.753-23.668C156.136,71.965,155.748,65.572,154.972,60.775z"/>
	<path fill="#555555" d="M208.411,110.099V55.776l-8.454-2.93V38.181l32.032-3.887h0.388l4.653,3.736v5.185l-0.155,3.606
		c3.619-3.512,8.156-6.413,13.611-8.704c5.455-2.291,11.388-3.436,17.8-3.436c6.152,0,11.091,1.066,14.814,3.199
		c3.723,2.133,6.463,5.625,8.221,10.475c1.757,4.85,2.637,11.415,2.637,19.692v41.976l7.756,1.427v11.571H255.8V111.6l6.593-1.577
		V68.101c0-4.421-0.298-7.826-0.892-10.215c-0.595-2.388-1.578-4.091-2.947-5.107c-1.371-1.016-3.323-1.524-5.856-1.524
		c-4.292,0-8.583,2.033-12.875,6.099v52.745l7.756,1.503v11.421h-47.156v-11.421L208.411,110.099z"/>
	<path fill="#555555" d="M314.784,55.005c3.594-6.663,8.726-11.715,15.396-15.158c6.67-3.442,14.555-5.164,23.656-5.164
		c11.685,0,20.578,2.622,26.681,7.865c6.101,5.244,9.229,12.633,9.384,22.165c0,5.959-0.491,11.203-1.473,15.73h-47.467
		c0.775,8.325,2.869,14.439,6.282,18.343c3.412,3.904,8.272,5.855,14.581,5.855c3.619,0,7.458-0.62,11.518-1.861
		c4.059-1.241,7.562-2.637,10.51-4.188l5.118,10.938c-1.603,1.811-4.24,3.775-7.911,5.895c-3.672,2.119-7.938,3.929-12.797,5.428
		c-4.86,1.501-9.772,2.249-14.736,2.249c-15.356,0-26.552-3.888-33.583-11.665c-7.033-7.776-10.549-18.5-10.549-32.172
		C309.394,69.753,311.19,61.668,314.784,55.005z M360.739,68.886l0.078-5.543c0-5.542-0.647-9.688-1.939-12.438
		c-1.293-2.749-3.62-4.124-6.98-4.124c-2.431,0-4.435,0.561-6.011,1.683c-1.578,1.123-2.831,3.288-3.762,6.5
		c-0.931,3.211-1.423,7.852-1.474,13.922H360.739z"/>
	<path fill="#555555" d="M418.21,95.267l4.499,12.557c0.568,0.981,2.042,1.873,4.421,2.675c2.378,0.801,4.704,1.201,6.98,1.201
		c3.463,0,6.178-0.776,8.144-2.328c1.965-1.552,2.947-3.462,2.947-5.729c0-1.823-0.673-3.438-2.017-4.842
		c-1.345-1.403-3.077-2.647-5.196-3.732c-2.121-1.084-5.119-2.438-8.997-4.064c-2.947-1.281-6.05-2.686-9.308-4.214
		c-6.257-3.006-11.04-6.627-14.349-10.864c-3.31-4.238-4.963-9.485-4.963-15.744c0-4.779,1.435-9.103,4.304-12.971
		c2.87-3.869,7.136-6.924,12.798-9.166c5.662-2.242,12.448-3.363,20.359-3.363c5.17,0,9.63,0.056,13.379,0.166
		c3.748,0.111,7.64,0.258,11.673,0.441c3.258,0.165,5.739,0.246,7.445,0.246v22.569h-16.598l-4.498-9.416
		c-0.466-0.671-1.539-1.272-3.219-1.806c-1.681-0.533-3.659-0.8-5.934-0.8c-3.567,0-6.348,0.728-8.338,2.18
		c-1.99,1.455-2.985,3.413-2.985,5.876c0,1.972,0.71,3.722,2.133,5.249c1.421,1.526,3.23,2.845,5.429,3.954
		c2.197,1.108,5.235,2.451,9.113,4.027l3.103,1.33c5.48,2.268,10.134,4.547,13.961,6.838c3.826,2.291,7.006,5.211,9.54,8.758
		c2.532,3.549,3.8,7.811,3.8,12.786c0,4.731-1.318,9.056-3.955,12.973c-2.637,3.918-6.839,7.071-12.604,9.461
		c-5.767,2.39-13.069,3.584-21.911,3.584c-5.998,0-11.246-0.413-15.744-1.24s-9.152-1.938-13.961-3.334
		c-3.361-0.931-5.637-1.474-6.825-1.629v-21.63L418.21,95.267L418.21,95.267z"/>
	<path fill="#555555" d="M552.971,39.546c6.593,3.242,11.736,8.092,15.435,14.551c3.695,6.46,5.545,14.391,5.545,23.793
		c0,10.444-2.043,19.03-6.127,25.761c-4.085,6.73-9.605,11.656-16.56,14.774s-14.827,4.676-23.616,4.676
		c-8.636,0-16.249-1.62-22.842-4.861c-6.593-3.242-11.75-8.105-15.473-14.589c-3.724-6.483-5.585-14.401-5.585-23.756
		c0-10.047,2.056-18.448,6.166-25.204c4.111-6.754,9.656-11.779,16.637-15.07s14.814-4.937,23.501-4.937
		S546.378,36.304,552.971,39.546z M539.669,60.775c-0.775-4.796-2.056-8.314-3.839-10.555c-1.784-2.239-4.177-3.36-7.175-3.36
		c-3.982,0-6.968,2.46-8.958,7.377c-1.991,4.919-2.986,12.784-2.986,23.596c0,7.889,0.439,14.258,1.318,19.103
		s2.25,8.389,4.111,10.628c1.861,2.241,4.291,3.36,7.29,3.36c3.93,0,6.812-2.435,8.648-7.305c1.835-4.869,2.753-12.759,2.753-23.668
		C540.832,71.965,540.445,65.572,539.669,60.775z"/>
</g>
</svg>
